<svg xmlns="http://www.w3.org/2000/svg" xmlns:xlink="http://www.w3.org/1999/xlink" width="65" zoomAndPan="magnify" viewBox="0 0 48.75 37.5" height="50" preserveAspectRatio="xMidYMid meet" version="1.0"><defs><clipPath id="id1"><path d="M 0.640625 6 L 18 6 L 18 31 L 0.640625 31 Z M 0.640625 6 " clip-rule="nonzero"/></clipPath><clipPath id="id2"><path d="M 31 6 L 48.253906 6 L 48.253906 31 L 31 31 Z M 31 6 " clip-rule="nonzero"/></clipPath><clipPath id="id3"><path d="M 16 0 L 33 0 L 33 37.007812 L 16 37.007812 Z M 16 0 " clip-rule="nonzero"/></clipPath></defs><path fill="#ad60ff" d="M 15.660156 30.328125 C 15.398438 30.328125 15.136719 30.238281 14.929688 30.074219 L 1.613281 19.53125 C 1.328125 19.304688 1.164062 18.964844 1.164062 18.597656 C 1.164062 18.230469 1.328125 17.894531 1.613281 17.664062 L 14.929688 7.125 C 15.136719 6.957031 15.398438 6.871094 15.660156 6.871094 C 16.023438 6.871094 16.363281 7.03125 16.585938 7.320312 C 16.78125 7.570312 16.871094 7.882812 16.832031 8.195312 C 16.796875 8.511719 16.636719 8.792969 16.390625 8.988281 L 4.253906 18.597656 L 16.390625 28.207031 C 16.636719 28.40625 16.796875 28.6875 16.832031 29 C 16.871094 29.3125 16.78125 29.625 16.585938 29.875 C 16.363281 30.160156 16.023438 30.328125 15.660156 30.328125 " fill-opacity="1" fill-rule="nonzero"/><g clip-path="url(#id1)"><path fill="#7855ff" d="M 15.660156 6.363281 C 15.285156 6.363281 14.917969 6.492188 14.621094 6.726562 L 1.300781 17.269531 C 0.894531 17.59375 0.660156 18.078125 0.660156 18.597656 C 0.660156 19.121094 0.894531 19.605469 1.300781 19.929688 L 14.621094 30.46875 C 14.914062 30.703125 15.285156 30.832031 15.660156 30.832031 C 16.179688 30.832031 16.664062 30.597656 16.984375 30.1875 C 17.261719 29.832031 17.382812 29.390625 17.332031 28.941406 C 17.277344 28.492188 17.054688 28.089844 16.703125 27.808594 L 5.0625 18.597656 L 16.703125 9.386719 C 17.054688 9.105469 17.277344 8.703125 17.332031 8.257812 C 17.382812 7.808594 17.261719 7.363281 16.984375 7.007812 C 16.664062 6.597656 16.179688 6.363281 15.660156 6.363281 Z M 15.660156 7.375 C 15.863281 7.375 16.0625 7.464844 16.191406 7.632812 C 16.425781 7.929688 16.375 8.359375 16.082031 8.589844 L 3.4375 18.597656 L 16.082031 28.605469 C 16.375 28.835938 16.425781 29.265625 16.191406 29.5625 C 16.0625 29.734375 15.863281 29.820312 15.660156 29.820312 C 15.515625 29.820312 15.367188 29.773438 15.242188 29.675781 L 1.921875 19.132812 C 1.761719 19.003906 1.664062 18.804688 1.664062 18.597656 C 1.664062 18.386719 1.761719 18.191406 1.921875 18.0625 L 15.242188 7.519531 C 15.367188 7.421875 15.515625 7.375 15.660156 7.375 " fill-opacity="1" fill-rule="nonzero"/></g><path fill="#ad60ff" d="M 33.234375 30.328125 C 32.871094 30.328125 32.53125 30.160156 32.304688 29.875 C 31.902344 29.359375 31.992188 28.613281 32.503906 28.207031 L 44.644531 18.597656 L 32.503906 8.988281 C 31.992188 8.582031 31.902344 7.835938 32.304688 7.320312 C 32.53125 7.03125 32.871094 6.871094 33.234375 6.871094 C 33.496094 6.871094 33.757812 6.957031 33.964844 7.125 L 47.28125 17.664062 C 47.566406 17.894531 47.730469 18.230469 47.730469 18.597656 C 47.730469 18.964844 47.566406 19.304688 47.28125 19.53125 L 33.964844 30.074219 C 33.757812 30.238281 33.496094 30.328125 33.234375 30.328125 " fill-opacity="1" fill-rule="nonzero"/><g clip-path="url(#id2)"><path fill="#7855ff" d="M 33.234375 6.363281 C 32.714844 6.363281 32.234375 6.597656 31.910156 7.007812 C 31.335938 7.742188 31.464844 8.808594 32.191406 9.386719 L 43.832031 18.597656 L 32.191406 27.808594 C 31.464844 28.386719 31.335938 29.453125 31.910156 30.1875 C 32.234375 30.597656 32.714844 30.832031 33.234375 30.832031 C 33.609375 30.832031 33.976562 30.703125 34.273438 30.46875 L 47.59375 19.929688 C 48 19.605469 48.234375 19.121094 48.234375 18.597656 C 48.234375 18.078125 48 17.59375 47.59375 17.269531 L 34.273438 6.726562 C 33.980469 6.492188 33.609375 6.363281 33.234375 6.363281 Z M 33.234375 7.375 C 33.378906 7.375 33.527344 7.421875 33.652344 7.519531 L 46.972656 18.0625 C 47.132812 18.191406 47.226562 18.386719 47.226562 18.597656 C 47.226562 18.804688 47.132812 19.003906 46.972656 19.132812 L 33.652344 29.675781 C 33.527344 29.773438 33.378906 29.820312 33.234375 29.820312 C 33.03125 29.820312 32.835938 29.734375 32.703125 29.5625 C 32.46875 29.265625 32.519531 28.835938 32.8125 28.605469 L 45.457031 18.597656 L 32.8125 8.589844 C 32.519531 8.359375 32.46875 7.929688 32.703125 7.632812 C 32.835938 7.464844 33.035156 7.375 33.234375 7.375 " fill-opacity="1" fill-rule="nonzero"/></g><path fill="#ad60ff" d="M 17.828125 36.6875 C 17.683594 36.6875 17.539062 36.660156 17.402344 36.609375 C 17.109375 36.492188 16.875 36.269531 16.75 35.980469 C 16.621094 35.691406 16.613281 35.367188 16.726562 35.074219 L 29.734375 1.265625 C 29.910156 0.8125 30.351562 0.507812 30.835938 0.507812 C 30.980469 0.507812 31.125 0.535156 31.261719 0.589844 C 31.867188 0.824219 32.171875 1.515625 31.9375 2.125 L 18.929688 35.929688 C 18.753906 36.382812 18.3125 36.6875 17.828125 36.6875 " fill-opacity="1" fill-rule="nonzero"/><g clip-path="url(#id3)"><path fill="#7855ff" d="M 30.835938 0.00390625 C 30.144531 0.00390625 29.515625 0.4375 29.265625 1.082031 L 16.257812 34.890625 C 16.097656 35.3125 16.109375 35.769531 16.289062 36.1875 C 16.472656 36.597656 16.800781 36.917969 17.222656 37.078125 C 17.417969 37.15625 17.621094 37.195312 17.828125 37.195312 C 18.519531 37.195312 19.148438 36.757812 19.398438 36.113281 L 32.402344 2.304688 C 32.738281 1.433594 32.308594 0.453125 31.441406 0.117188 C 31.25 0.0390625 31.042969 0.00390625 30.835938 0.00390625 Z M 30.835938 1.011719 C 30.917969 1.011719 31 1.027344 31.078125 1.058594 C 31.429688 1.195312 31.601562 1.589844 31.46875 1.941406 L 18.460938 35.746094 C 18.355469 36.019531 18.101562 36.183594 17.828125 36.183594 C 17.746094 36.183594 17.664062 36.167969 17.582031 36.136719 C 17.234375 36 17.0625 35.605469 17.199219 35.253906 L 30.203125 1.449219 C 30.308594 1.179688 30.5625 1.011719 30.835938 1.011719 " fill-opacity="1" fill-rule="nonzero"/></g></svg>